<?xml version="1.0" encoding="utf-8"?>
<!-- Generator: Adobe Illustrator 16.0.0, SVG Export Plug-In . SVG Version: 6.00 Build 0)  -->
<!DOCTYPE svg PUBLIC "-//W3C//DTD SVG 1.1//EN" "http://www.w3.org/Graphics/SVG/1.1/DTD/svg11.dtd">
<svg version="1.1" id="Layer_1" xmlns="http://www.w3.org/2000/svg" xmlns:xlink="http://www.w3.org/1999/xlink" x="0px" y="0px"
	 width="66px" height="66px" viewBox="0 0 66 66" enable-background="new 0 0 66 66" xml:space="preserve">
<g>
	<path fill="#12D6BF" d="M39.471,2.576c-2.332,0-4.531,1.236-6.471,3.408c-1.939-2.172-4.139-3.408-6.471-3.408
		c-7.775,0-23.612,6.809-23.612,23.611c0,16.805,15.837,37.236,23.612,37.236c2.332,0,4.531-1.234,6.471-3.406
		c1.939,2.172,4.139,3.406,6.471,3.406c7.775,0,23.612-20.432,23.612-37.236C63.083,9.385,47.246,2.576,39.471,2.576z"/>
	<path fill="#08C4B2" d="M2.917,26.188c0,16.805,15.837,37.236,23.612,37.236c2.332,0,4.531-1.234,6.471-3.406
		c1.939,2.172,4.139,3.406,6.471,3.406c7.775,0,23.612-20.432,23.612-37.236c0-16.803-15.837-23.611-23.612-23.611
		c-2.332,0-4.531,1.236-6.471,3.408c-1.939-2.172-4.139-3.408-6.471-3.408"/>
	<path fill="#04A0A0" d="M33,60.018c1.939,2.172,4.139,3.406,6.471,3.406c7.775,0,23.612-20.432,23.612-37.236
		c0-16.803-15.837-23.611-23.612-23.611c-2.332,0-4.531,1.236-6.471,3.408"/>
	<path fill="#16959B" d="M33,60.018c1.939,2.172,4.139,3.406,6.471,3.406c7.775,0,23.612-20.432,23.612-37.236"/>
	<g>
		<g>
			
				<polyline fill="#04A0A0" stroke="#5DEDE9" stroke-width="2" stroke-linecap="round" stroke-linejoin="round" stroke-miterlimit="10" points="
				15,16 15,26 29,26 			"/>
			
				<polyline fill="#04A0A0" stroke="#5DEDE9" stroke-width="2" stroke-linecap="round" stroke-linejoin="round" stroke-miterlimit="10" points="
				29,26 29,35 12,35 			"/>
			
				<polyline fill="#04A0A0" stroke="#5DEDE9" stroke-width="2" stroke-linecap="round" stroke-linejoin="round" stroke-miterlimit="10" points="
				12,40 17,40 17,48 25,48 25,36 			"/>
			
				<polyline fill="#04A0A0" stroke="#5DEDE9" stroke-width="2" stroke-linecap="round" stroke-linejoin="round" stroke-miterlimit="10" points="
				24.716,47.832 30,52.951 30,57 23,57 			"/>
			
				<polyline fill="#04A0A0" stroke="#5DEDE9" stroke-width="2" stroke-linecap="round" stroke-linejoin="round" stroke-miterlimit="10" points="
				20,20 24.84,20 29.642,15.035 27.771,13 13,13 			"/>
			
				<line fill="#04A0A0" stroke="#5DEDE9" stroke-width="2" stroke-linecap="round" stroke-linejoin="round" stroke-miterlimit="10" x1="29" y1="39" x2="29" y2="45"/>
			
				<line fill="#04A0A0" stroke="#5DEDE9" stroke-width="1.5" stroke-linecap="round" stroke-linejoin="round" stroke-miterlimit="10" x1="8.843" y1="26.206" x2="10.978" y2="28.34"/>
		</g>
		<g>
			
				<polyline fill="#307F87" stroke="#5DEDE9" stroke-width="2" stroke-linecap="round" stroke-linejoin="round" stroke-miterlimit="10" points="
				51,16 51,26 37,26 			"/>
			
				<polyline fill="#307F87" stroke="#5DEDE9" stroke-width="2" stroke-linecap="round" stroke-linejoin="round" stroke-miterlimit="10" points="
				37,26 37,35 54,35 			"/>
			
				<polyline fill="#307F87" stroke="#5DEDE9" stroke-width="2" stroke-linecap="round" stroke-linejoin="round" stroke-miterlimit="10" points="
				54,40 49,40 49,48 41,48 41,36 			"/>
			
				<polyline fill="#307F87" stroke="#5DEDE9" stroke-width="2" stroke-linecap="round" stroke-linejoin="round" stroke-miterlimit="10" points="
				41.284,47.832 36,52.951 36,57 43,57 			"/>
			
				<polyline fill="#307F87" stroke="#5DEDE9" stroke-width="2" stroke-linecap="round" stroke-linejoin="round" stroke-miterlimit="10" points="
				46,20 41.16,20 36.358,15.035 38.229,13 53,13 			"/>
			
				<line fill="#307F87" stroke="#5DEDE9" stroke-width="2" stroke-linecap="round" stroke-linejoin="round" stroke-miterlimit="10" x1="37" y1="39" x2="37" y2="45"/>
			
				<line fill="#307F87" stroke="#5DEDE9" stroke-width="1.5" stroke-linecap="round" stroke-linejoin="round" stroke-miterlimit="10" x1="57.156" y1="26.206" x2="55.022" y2="28.34"/>
		</g>
	</g>
	<g>
		<g>
			<circle fill="#6CF4ED" cx="15.287" cy="9.542" r="0.516"/>
			<circle fill="#6CF4ED" cx="17.637" cy="9.542" r="0.516"/>
			<circle fill="#6CF4ED" cx="19.986" cy="9.542" r="0.516"/>
			<circle fill="#6CF4ED" cx="22.336" cy="9.542" r="0.516"/>
			<circle fill="#6CF4ED" cx="24.686" cy="9.542" r="0.516"/>
			<circle fill="#6CF4ED" cx="27.034" cy="9.542" r="0.517"/>
		</g>
		<g>
			<circle fill="#08C4B2" cx="38.965" cy="9.542" r="0.516"/>
			<circle fill="#08C4B2" cx="41.314" cy="9.542" r="0.516"/>
			<circle fill="#08C4B2" cx="43.664" cy="9.542" r="0.516"/>
			<circle fill="#08C4B2" cx="46.014" cy="9.542" r="0.516"/>
			<circle fill="#08C4B2" cx="48.363" cy="9.542" r="0.516"/>
			<circle fill="#08C4B2" cx="50.713" cy="9.542" r="0.516"/>
		</g>
	</g>
</g>
</svg>
